<svg width="21" height="16" viewBox="0 0 21 16" fill="none" xmlns="http://www.w3.org/2000/svg">
<path d="M14 8.36364C14 8.25758 13.9672 8.17045 13.9016 8.10227L10.0516 4.10227C9.98594 4.03409 9.90208 4 9.8 4C9.69792 4 9.61406 4.03409 9.54844 4.10227L5.70937 8.09091C5.63646 8.18182 5.6 8.27273 5.6 8.36364C5.6 8.4697 5.63281 8.55682 5.69844 8.625C5.76406 8.69318 5.84792 8.72727 5.95 8.72727H8.4V12.7273C8.4 12.8258 8.43464 12.911 8.50391 12.983C8.57318 13.0549 8.65521 13.0909 8.75 13.0909H10.85C10.9448 13.0909 11.0268 13.0549 11.0961 12.983C11.1654 12.911 11.2 12.8258 11.2 12.7273V8.72727H13.65C13.7448 8.72727 13.8268 8.69129 13.8961 8.61932C13.9654 8.54735 14 8.46212 14 8.36364ZM21 11.6364C21 12.8409 20.5898 13.8693 19.7695 14.7216C18.9492 15.5739 17.9594 16 16.8 16H4.9C3.55104 16 2.39714 15.5019 1.43828 14.5057C0.479427 13.5095 0 12.3106 0 10.9091C0 9.92424 0.255208 9.01515 0.765625 8.18182C1.27604 7.34848 1.96146 6.72348 2.82187 6.30682C2.80729 6.07955 2.8 5.91667 2.8 5.81818C2.8 4.21212 3.34687 2.84091 4.44063 1.70455C5.53438 0.568182 6.85417 0 8.4 0C9.5375 0 10.5784 0.329545 11.5227 0.988636C12.4669 1.64773 13.1542 2.52273 13.5844 3.61364C14.1021 3.14394 14.7073 2.90909 15.4 2.90909C16.1729 2.90909 16.8328 3.19318 17.3797 3.76136C17.9266 4.32955 18.2 5.01515 18.2 5.81818C18.2 6.39394 18.0505 6.91667 17.7516 7.38636C18.6995 7.62121 19.4779 8.13447 20.0867 8.92614C20.6956 9.7178 21 10.6212 21 11.6364Z" fill="#8A8A8A"/>
</svg>
